<svg xmlns="http://www.w3.org/2000/svg" width="291.909" height="70.785" viewBox="0 0 291.909 70.785"><g transform="translate(-140.398 -88.608)"><text transform="translate(221.307 137.906)" fill="#fff" font-size="35" font-family="Prompt-Regular, Prompt"><tspan x="0" y="0">LEARNMARU</tspan></text><g transform="translate(140.791 89)"><g transform="translate(0 0)"><path d="M15.745,1.566V61.608h-.072l.071,9.958,58.62-.18-.071-9.959-42.944.132V1.566Z" transform="translate(-15.673 -1.566)" fill="blue" stroke="#020000" stroke-linejoin="round" stroke-width="0.785" opacity="0.997"/></g><g transform="translate(9.718 6.873)"><path d="M122.149,116.495s3.106,2.86,5.609,2.346h0a3.092,3.092,0,0,1-1.252-2.033,2.224,2.224,0,0,0-.572-1.282Z" transform="translate(-82.756 -71.645)" fill="#fea" stroke="#000" stroke-width="0.891"/><ellipse cx="5.048" cy="5.048" rx="5.048" ry="5.048" transform="translate(4.212 4.469)" opacity="0.997" stroke="#000" stroke-linejoin="round" stroke-width="1.014" fill="#fc0"/><ellipse cx="4.632" cy="4.632" rx="4.632" ry="4.632" transform="translate(27.725 1.613)" opacity="0.997" stroke="#000" stroke-linejoin="round" stroke-width="0.93" fill="#fc0"/><path d="M60.5,32.661a23.945,23.945,0,0,0-.142,47.886c.74.621,3.281,2.594,5.4,2.16a3.091,3.091,0,0,1-1.252-2.033,1.7,1.7,0,0,0-.093-.476A23.969,23.969,0,0,0,83.4,50.2a4.626,4.626,0,0,0-4.135-8.269A23.7,23.7,0,0,0,60.5,32.661Z" transform="translate(-36.742 -27)" fill="#fea" stroke="#000" stroke-width="0.891"/><ellipse cx="5.175" cy="10.11" rx="5.175" ry="10.11" transform="translate(45.885 12.768) rotate(70.086)" fill="#fff" opacity="0.997"/><path d="M128.576,68.7s12.473-5.562,4.378,5.991" transform="translate(-86.218 -45.694)" fill="#fea" stroke="#000" stroke-width="0.872"/><path d="M70,79.639a4.632,4.632,0,1,1-3.514-7.875" transform="translate(-50.383 -48.068)" fill="none" stroke="#000" stroke-linejoin="round" stroke-width="0.93" opacity="0.997"/><ellipse cx="15.322" cy="19.063" rx="15.322" ry="19.063" transform="translate(14.675 12.278)" fill="#fff" opacity="0.997"/><ellipse cx="4.73" cy="7.801" rx="4.73" ry="7.801" transform="matrix(0.053, 0.999, -0.999, 0.053, 27.134, 21.449)" fill="#fff" opacity="0.997"/><path d="M86.686,85.051s9.846-4.945,2.813,7.143" transform="translate(-63.65 -54.687)" fill="#fea" stroke="#000" stroke-width="0.804"/><g transform="matrix(0.997, -0.082, 0.082, 0.997, 11.816, 1.289)"><rect width="10.199" height="2.005" transform="translate(3.221 4.665) rotate(-7.152)" opacity="0.997" stroke="#020000" stroke-linejoin="round" stroke-width="0.8" fill="#333"/><rect width="15.541" height="2.09" transform="translate(0 2.729) rotate(-10.113)" opacity="0.997" stroke="#020000" stroke-linejoin="round" stroke-width="1.008" fill="#333"/><path d="M.055,0l.4,6A1.7,1.7,0,0,0,.63,8.443C1.938,9.576.456,6.525.456,5.915" transform="translate(0.322 4.819)" fill="maroon" stroke="#000" stroke-width="0.8"/></g><rect width="1.233" height="18.122" transform="translate(53.559 7.348) rotate(22.1)" opacity="0.997" stroke="#020000" stroke-linejoin="round" stroke-width="0.8" fill="#520"/><ellipse cx="0.749" cy="1.957" rx="0.749" ry="1.957" transform="translate(21.114 13.186)" opacity="0.997" stroke="#000" stroke-linejoin="round" stroke-width="0.794"/><ellipse cx="3.661" cy="0.61" rx="3.661" ry="0.61" transform="matrix(0.95, -0.314, 0.314, 0.95, 33.9, 15.919)" opacity="0.997" stroke="#000" stroke-linejoin="round" stroke-width="0.8" fill="red"/><path d="M86.474,34.3l1.649,2.236.66.894.976-.6,1.464-.907-.66-.894L89.1,36.666,87.45,33.7Z" transform="translate(-63.536 -27.56)" fill="blue" stroke="#000" stroke-linejoin="round" stroke-width="0.739" opacity="0.997"/><path d="M90.693,57.33S91.44,60.017,95,56.037c0,0,5.056,1.394,4.309-1.293" transform="translate(-65.809 -38.898)" fill="none" stroke="#000" stroke-width="0.599"/><ellipse cx="0.62" cy="1.767" rx="0.62" ry="1.767" transform="translate(32.137 10.604)" opacity="0.997" stroke="#000" stroke-linejoin="round" stroke-width="0.686"/><ellipse cx="3.661" cy="0.61" rx="3.661" ry="0.61" transform="matrix(0.947, -0.322, 0.322, 0.947, 16.884, 21.824)" opacity="0.997" stroke="#000" stroke-linejoin="round" stroke-width="0.8" fill="red"/></g></g></g></svg>